<?xml version="1.0" encoding="iso-8859-1"?>
<!-- Generator: Adobe Illustrator 19.0.0, SVG Export Plug-In . SVG Version: 6.00 Build 0)  -->
<svg version="1.1" id="Capa_1" xmlns="http://www.w3.org/2000/svg" xmlns:xlink="http://www.w3.org/1999/xlink" x="0px" y="0px"
	 viewBox="0 0 480 480" style="enable-background:new 0 0 480 480;" xml:space="preserve">
<path style="fill:#ABD4D8;" d="M288,464h144V360H288V464z M413.656,389.656l-48,48l-11.312-11.312l48-48L413.656,389.656z
	 M354.344,378.344l11.312,11.312l-48,48l-11.312-11.312L354.344,378.344z"/>
<path style="fill:#668894;" d="M256,368v88c0,4.416,3.592,8,8,8h8V360h-8C259.592,360,256,363.584,256,368z"/>
<path style="fill:#ABD4D8;" d="M440,16H88c-13.232,0-24,10.768-24,24v160h128c13.232,0,24,10.768,24,24v16h248V40
	C464,26.768,453.232,16,440,16z M181.656,173.656l-11.312-11.312l96-96l11.312,11.312L181.656,173.656z M266.344,162.344l96-96
	l11.312,11.312l-96,96L266.344,162.344z M384,224h-16v-16h16V224z M416,224h-16v-16h16V224z M448,224h-16v-16h16V224z"/>
<path style="fill:#668894;" d="M216,296h224c13.232,0,24-10.768,24-24v-16H216V296z"/>
<path style="fill:#ABD4D8;" d="M340.904,344l-10.664-32H216v48h25.472c3.312-9.288,12.112-16,22.528-16H340.904z"/>
<g>
	<rect x="216" y="376" style="fill:#668894;" width="24" height="16"/>
	<path style="fill:#668894;" d="M192,216H24c-4.408,0-8,3.584-8,8v16h184v-16C200,219.584,196.408,216,192,216z"/>
</g>
<path style="fill:#ABD4D8;" d="M16,424h184V256H16V424z M165.656,317.656l-64,64l-11.312-11.312l64-64L165.656,317.656z
	 M106.344,290.344l11.312,11.312l-64,64l-11.312-11.312L106.344,290.344z"/>
<g>
	<path style="fill:#668894;" d="M16,456c0,4.416,3.592,8,8,8h168c4.408,0,8-3.584,8-8v-16H16V456z"/>
	<path style="fill:#668894;" d="M464,456v-88c0-4.416-3.592-8-8-8h-8v104h8C460.408,464,464,460.416,464,456z"/>
</g>
<g>
	<path style="fill:#203C51;" d="M440,312c22.056,0,40-17.944,40-40V40c0-22.056-17.944-40-40-40H88C65.944,0,48,17.944,48,40v160H24
		c-13.232,0-24,10.768-24,24v232c0,13.232,10.768,24,24,24h168c13.232,0,24-10.768,24-24v-48h24v48c0,13.232,10.768,24,24,24h192
		c13.232,0,24-10.768,24-24v-88c0-13.232-10.768-24-24-24h-98.232l-10.664-32H440z M440,296H216v-40h248v16
		C464,285.232,453.232,296,440,296z M64,40c0-13.232,10.768-24,24-24h352c13.232,0,24,10.768,24,24v200H216v-16
		c0-13.232-10.768-24-24-24H64V40z M24,216h168c4.408,0,8,3.584,8,8v16H16v-16C16,219.584,19.592,216,24,216z M200,256v168H16V256
		H200z M192,464H24c-4.408,0-8-3.584-8-8v-16h184v16C200,460.416,196.408,464,192,464z M216,392v-16h24v16H216z M256,456v-88
		c0-4.416,3.592-8,8-8h8v104h-8C259.592,464,256,460.416,256,456z M432,360v104H288V360H432z M464,368v88c0,4.416-3.592,8-8,8h-8
		V360h8C460.408,360,464,363.584,464,368z M340.904,344H264c-10.416,0-19.216,6.712-22.528,16H216v-48h114.232L340.904,344z"/>
	
		<rect x="156.117" y="111.979" transform="matrix(-0.7071 0.7071 -0.7071 -0.7071 467.2304 46.4244)" style="fill:#203C51;" width="135.767" height="16"/>
	
		<rect x="252.119" y="112.001" transform="matrix(-0.7071 0.7071 -0.7071 -0.7071 631.1313 -21.4207)" style="fill:#203C51;" width="135.767" height="16"/>
	
		<rect x="34.74" y="320.001" transform="matrix(-0.7071 0.7071 -0.7071 -0.7071 368.4933 503.3667)" style="fill:#203C51;" width="90.511" height="16"/>
	
		<rect x="82.739" y="335.998" transform="matrix(-0.7071 0.7071 -0.7071 -0.7071 461.7431 496.7349)" style="fill:#203C51;" width="90.511" height="16"/>
	
		<rect x="302.055" y="400.002" transform="matrix(-0.7071 0.7071 -0.7071 -0.7071 862.0799 458.9189)" style="fill:#203C51;" width="67.879" height="16"/>
	
		<rect x="350.052" y="400.005" transform="matrix(-0.7071 0.7071 -0.7071 -0.7071 944.0178 424.9855)" style="fill:#203C51;" width="67.879" height="16"/>
	<rect x="432" y="208" style="fill:#203C51;" width="16" height="16"/>
	<rect x="400" y="208" style="fill:#203C51;" width="16" height="16"/>
	<rect x="368" y="208" style="fill:#203C51;" width="16" height="16"/>
</g>
<g>
</g>
<g>
</g>
<g>
</g>
<g>
</g>
<g>
</g>
<g>
</g>
<g>
</g>
<g>
</g>
<g>
</g>
<g>
</g>
<g>
</g>
<g>
</g>
<g>
</g>
<g>
</g>
<g>
</g>
</svg>
